# xmcd
#
# Track frame offsets:
#	150
#	14996
#	29005
#	39694
#	53109
#	66416
#	79182
#	91814
#	110321
#	122453
#	137421
#	150184
#	165246
#	181801
#	200144
#	214033
#	228219
#	240074
#	255872
#	269994
#	286464
#	299639
#	311896
#
# Disc length: 4328 seconds
#
# Revision: 0
# Processed by: cddbd v1.5.1PL0 Copyright (c) Steve Scherf et al.
# Submitted via: audiograbber 1.83.01
#
DISCID=4610e617
DTITLE=Various Artist - Canto, Bebo e Choro
DYEAR=2000
DGENRE=Sertanejo Raiz
TTITLE0=Boate Azul
TTITLE1=Noite Maravilhosa
TTITLE2=Canto, Bebo e Choro
TTITLE3=Minha Serenata
TTITLE4=Vestido de Seda
TTITLE5=Música da Saudade
TTITLE6=Camisa Branca
TTITLE7=Toalha Molhada
TTITLE8=Regresso de Bohemia
TTITLE9=Pulouver de Lã
TTITLE10=Quem é esse Homem
TTITLE11=Blusa Vermelha
TTITLE12=Roupa de Lua de Mel
TTITLE13=Paixão Proibida
TTITLE14=Convite de Casamento
TTITLE15=Ainda Ontem Chorei de Saudade
TTITLE16=Um Pouco de Você
TTITLE17=Inimigo do Peito
TTITLE18=A Noite do Nosso Amor
TTITLE19=Pranto Escondido
TTITLE20=Esta Noite Com Lembrança
TTITLE21=Por Sua Culpa
TTITLE22=Pedaçõ de noite
EXTD=Canto, Bebo e Choro
EXTT0=
EXTT1=
EXTT2=
EXTT3=
EXTT4=
EXTT5=
EXTT6=
EXTT7=
EXTT8=
EXTT9=
EXTT10=
EXTT11=
EXTT12=
EXTT13=
EXTT14=
EXTT15=
EXTT16=
EXTT17=
EXTT18=
EXTT19=
EXTT20=
EXTT21=
EXTT22=
PLAYORDER=
